<svg version="1.1" id="Layer_1" xmlns="http://www.w3.org/2000/svg" xmlns:xlink="http://www.w3.org/1999/xlink" x="0px" y="0px"
	 width="100%" viewBox="0 0 146 141" enable-background="new 0 0 146 141" xml:space="preserve">
<path fill="#000000" opacity="1.000000" stroke="none" 
	d="
M1.000000,49.000000 
	C1.000000,32.680470 1.000000,16.860937 1.000000,1.020703 
	C49.610435,1.020703 98.220886,1.020703 146.915665,1.020703 
	C146.915665,47.902668 146.915665,94.805534 146.915665,141.854202 
	C98.333656,141.854202 49.666885,141.854202 1.000000,141.854202 
	C1.000000,111.112862 1.000000,80.306435 1.000000,49.000000 
M38.114071,133.356964 
	C37.873909,133.818848 37.633743,134.280716 37.393581,134.742599 
	C37.956104,134.519897 38.518631,134.297195 39.575043,133.935974 
	C39.741852,133.650269 39.908661,133.364563 40.726460,132.793930 
	C41.098289,132.085175 41.284912,131.096420 41.869698,130.709610 
	C50.859909,124.762787 59.587231,118.323441 69.001343,113.133507 
	C85.584206,103.991501 103.158211,96.546379 119.276207,86.688644 
	C137.778717,75.372559 145.794739,55.268055 138.058456,33.486710 
	C132.694427,18.384413 114.619431,5.525764 99.191139,7.098677 
	C89.432808,8.093536 80.127716,10.839539 74.076653,18.403957 
	C70.876900,15.154697 67.860825,12.048426 64.797256,8.989719 
	C57.589626,1.793518 47.655090,3.652340 39.459110,3.604004 
	C28.184700,3.537512 18.329292,9.815923 12.285686,21.217230 
	C8.949992,30.634876 4.555331,39.116402 9.446976,50.312351 
	C13.498694,59.585876 18.309380,67.683510 25.145649,75.678024 
	C27.644205,78.481697 30.063021,81.364326 32.701855,84.029091 
	C33.301826,84.634956 34.663784,84.486252 35.675018,84.684868 
	C35.411194,83.788551 35.344452,82.760231 34.848331,82.019501 
	C33.013557,79.280113 31.036989,76.635696 28.893110,73.358345 
	C28.206177,72.570442 27.519243,71.782532 26.934109,70.455956 
	C26.635122,70.268097 26.336136,70.080231 25.855556,69.349236 
	C25.268963,68.887207 24.682369,68.425179 24.002436,67.303902 
	C23.275530,66.266228 22.548624,65.228546 21.930016,63.703255 
	C21.930016,63.703255 21.640537,63.296192 21.231197,62.811848 
	C20.504543,61.838108 19.777889,60.864372 18.987165,59.147392 
	C15.093268,52.232403 12.570716,45.060402 14.989660,36.240295 
	C19.120552,24.479824 26.293182,15.837358 39.883625,13.005226 
	C45.248466,13.701772 50.613304,14.398316 56.277794,15.732327 
	C66.012001,20.244656 67.305054,30.077854 70.537094,39.554863 
	C72.622543,36.417980 74.433411,34.125835 75.785210,31.589056 
	C83.259422,17.563078 96.105858,14.903516 109.359093,17.843832 
	C128.221939,22.028673 135.947937,44.857613 131.285172,61.201687 
	C128.168060,72.127899 119.901306,79.250595 110.972137,84.791130 
	C95.023964,94.686958 78.186119,103.136581 61.984135,112.640732 
	C53.149063,117.823433 44.697151,123.750053 38.946884,132.833145 
	C38.946884,132.833145 38.736126,133.063614 38.114071,133.356964 
z"/>
<path fill="#FDFEFD" opacity="1.000000" stroke="none" 
	d="
M39.066216,132.732819 
	C44.697151,123.750053 53.149063,117.823433 61.984135,112.640732 
	C78.186119,103.136581 95.023964,94.686958 110.972137,84.791130 
	C119.901306,79.250595 128.168060,72.127899 131.285172,61.201687 
	C135.947937,44.857613 128.221939,22.028673 109.359093,17.843832 
	C96.105858,14.903516 83.259422,17.563078 75.785210,31.589056 
	C74.433411,34.125835 72.622543,36.417980 70.537094,39.554863 
	C67.305054,30.077854 66.012001,20.244656 56.090622,15.038923 
	C51.764297,13.225679 47.666798,11.872977 43.461880,11.120754 
	C42.111988,10.879272 40.478470,12.223281 38.974712,12.841920 
	C26.293182,15.837358 19.120552,24.479824 14.586632,36.555550 
	C10.176399,34.459499 9.319262,31.576948 12.672638,27.870844 
	C14.629150,25.708532 15.046512,23.325556 12.964238,20.916826 
	C18.329292,9.815923 28.184700,3.537512 39.459110,3.604004 
	C47.655090,3.652340 57.589626,1.793518 64.797256,8.989719 
	C67.860825,12.048426 70.876900,15.154697 74.076653,18.403957 
	C80.127716,10.839539 89.432808,8.093536 99.191139,7.098677 
	C114.619431,5.525764 132.694427,18.384413 138.058456,33.486710 
	C145.794739,55.268055 137.778717,75.372559 119.276207,86.688644 
	C103.158211,96.546379 85.584206,103.991501 69.001343,113.133507 
	C59.587231,118.323441 50.859909,124.762787 41.869698,130.709610 
	C41.284912,131.096420 41.098289,132.085175 40.159218,132.819046 
	C39.416725,132.807037 39.241470,132.769928 39.066216,132.732819 
z"/>
<path fill="#F3F4F3" opacity="1.000000" stroke="none" 
	d="
M12.624962,21.067028 
	C15.046512,23.325556 14.629150,25.708532 12.672638,27.870844 
	C9.319262,31.576948 10.176399,34.459499 14.509176,36.931061 
	C12.570716,45.060402 15.093268,52.232403 18.902142,59.834099 
	C18.516802,62.708881 18.688559,64.416710 21.640537,63.296192 
	C21.640537,63.296192 21.930016,63.703255 21.652342,64.335922 
	C22.281704,65.966774 23.188740,66.964966 24.095776,67.963158 
	C24.682369,68.425179 25.268963,68.887207 26.011124,69.847275 
	C26.318897,70.633156 26.540770,70.849594 26.832310,70.994629 
	C27.519243,71.782532 28.206177,72.570442 28.663347,73.800697 
	C27.250296,74.510757 26.067007,74.778465 24.883720,75.046173 
	C18.309380,67.683510 13.498694,59.585876 9.446976,50.312351 
	C4.555331,39.116402 8.949992,30.634876 12.624962,21.067028 
z"/>
<path fill="#ECECEC" opacity="1.000000" stroke="none" 
	d="
M25.014685,75.362099 
	C26.067007,74.778465 27.250296,74.510757 28.773647,74.099319 
	C31.036989,76.635696 33.013557,79.280113 34.848331,82.019501 
	C35.344452,82.760231 35.411194,83.788551 35.675018,84.684868 
	C34.663784,84.486252 33.301826,84.634956 32.701855,84.029091 
	C30.063021,81.364326 27.644205,78.481697 25.014685,75.362099 
z"/>
<path fill="#DEDEDE" opacity="1.000000" stroke="none" 
	d="
M39.429169,12.923573 
	C40.478470,12.223281 42.111988,10.879272 43.461880,11.120754 
	C47.666798,11.872977 51.764297,13.225679 55.940800,14.720190 
	C50.613304,14.398316 45.248466,13.701772 39.429169,12.923573 
z"/>
<path fill="#ECECEC" opacity="1.000000" stroke="none" 
	d="
M24.049107,67.633530 
	C23.188740,66.964966 22.281704,65.966774 21.598194,64.579727 
	C22.548624,65.228546 23.275530,66.266228 24.049107,67.633530 
z"/>
<path fill="#ECECEC" opacity="1.000000" stroke="none" 
	d="
M21.435867,63.054020 
	C18.688559,64.416710 18.516802,62.708881 18.934177,60.205723 
	C19.777889,60.864372 20.504543,61.838108 21.435867,63.054020 
z"/>
<path fill="#FDFEFD" opacity="1.000000" stroke="none" 
	d="
M39.081158,134.074509 
	C38.518631,134.297195 37.956104,134.519897 37.393581,134.742599 
	C37.633743,134.280716 37.873909,133.818848 38.479736,133.473816 
	C38.923988,133.751953 39.002571,133.913239 39.081158,134.074509 
z"/>
<path fill="#ECECEC" opacity="1.000000" stroke="none" 
	d="
M26.883209,70.725296 
	C26.540770,70.849594 26.318897,70.633156 26.101921,70.118843 
	C26.336136,70.080231 26.635122,70.268097 26.883209,70.725296 
z"/>
<path fill="#FDFEFD" opacity="1.000000" stroke="none" 
	d="
M39.833725,132.961502 
	C39.908661,133.364563 39.741852,133.650269 39.328102,134.005249 
	C39.002571,133.913239 38.923988,133.751953 38.790764,133.327148 
	C38.736126,133.063614 38.946884,132.833145 39.006550,132.782990 
	C39.241470,132.769928 39.416725,132.807037 39.833725,132.961502 
z"/>
</svg>