<?xml version="1.0" encoding="UTF-8"?>
<svg version="1.1" xmlns="http://www.w3.org/2000/svg" width="146" height="141">
<path d="M0 0 C4.39350436 3.15074938 7.8468839 6.61639956 11 11 C11.94875 10.0925 12.8975 9.185 13.875 8.25 C21.38100959 1.88719027 30.26833036 -0.3018508 40 0 C52.23272874 1.61861633 62.30144042 6.16205123 70 16 C76.83359591 27.25800834 79.70125653 38.33450406 77.375 51.4375 C73.42316226 66.59523379 63.56334499 76.61746767 50.41015625 84.5234375 C38.7125021 91.24507886 26.42267249 97.05251654 14.1796875 102.703125 C-7.24969641 112.23173679 -7.24969641 112.23173679 -24 128 C-24.66 127.67 -25.32 127.34 -26 127 C-14.35536565 113.16902614 -0.80292703 104.48975229 15 96 C18.04762648 94.36151897 21.09509874 92.72277523 24.14111328 91.08129883 C26.1954629 89.97599863 28.25228452 88.87527574 30.31201172 87.7800293 C44.79888515 80.01203868 62.36002989 70.57359636 68 54 C70.02343084 42.61004253 68.70253207 32.53913794 62.83984375 22.51953125 C58.66941111 16.80842922 52.98247872 12.48563377 46 11 C44.845 10.731875 43.69 10.46375 42.5 10.1875 C35.21991366 9.43003437 25.99892324 10.87339412 20.125 15.4375 C16.32440062 19.24777011 13.54151492 23.94842509 10.69921875 28.48828125 C9 31 9 31 7 32 C6.62488281 30.90300781 6.24976563 29.80601563 5.86328125 28.67578125 C5.34710021 27.22108923 4.8301312 25.76667664 4.3125 24.3125 C3.94608398 23.2306543 3.94608398 23.2306543 3.57226562 22.12695312 C1.15470107 15.42509696 -2.58754357 11.28843919 -9 8 C-15.91263515 5.813038 -24.31447247 5.90092718 -31 8.6875 C-34.66935116 10.60252634 -37.32509251 12.80497161 -40 16 C-40.43054687 16.50273437 -40.86109375 17.00546875 -41.3046875 17.5234375 C-46.37226793 23.91038798 -48.87188966 31.86236322 -48 40 C-45.85153972 52.02716492 -37.63943044 61.30537114 -30.46875 70.8203125 C-29 73 -29 73 -29 75 C-28.34 75 -27.68 75 -27 75 C-27 75.99 -27 76.98 -27 78 C-31.33152492 77.56482343 -33.51516888 74.7643649 -36.25 71.6875 C-36.72800049 71.15785645 -37.20600098 70.62821289 -37.69848633 70.08251953 C-50 56.13929725 -50 56.13929725 -50 51 C-50.66 50.67 -51.32 50.34 -52 50 C-52.67784992 47.66989091 -53.34416793 45.33640176 -54 43 C-54.66 42.34 -55.32 41.68 -56 41 C-57.56532928 29.18588321 -54.65997752 18.69458988 -47.75 9.0625 C-36.06149484 -4.72588812 -16.06734427 -8.81775853 0 0 Z M-54 28 C-53 30 -53 30 -53 30 Z M-38 64 C-37 66 -37 66 -37 66 Z M-36 67 C-35.67 67.99 -35.34 68.98 -35 70 C-35 69.01 -35 68.02 -35 67 C-35.33 67 -35.66 67 -36 67 Z " fill="#FCFCFC" transform="translate(62,6)"/>
<path d="M0 0 C0.99 0 1.98 0 3 0 C2.34 1.65 1.68 3.3 1 5 C0.34 5 -0.32 5 -1 5 C-1.33 7.31 -1.66 9.62 -2 12 C-2.66 12 -3.32 12 -4 12 C-4.144375 12.639375 -4.28875 13.27875 -4.4375 13.9375 C-5 16 -5 16 -6 17 C-6.07205511 18.68608966 -6.08386068 20.37500659 -6.0625 22.0625 C-6.05347656 22.98160156 -6.04445313 23.90070312 -6.03515625 24.84765625 C-6.02355469 25.55792969 -6.01195312 26.26820312 -6 27 C-4.68 27 -3.36 27 -2 27 C-1.85304688 27.73863281 -1.70609375 28.47726563 -1.5546875 29.23828125 C1.12669646 41.36615008 6.95750478 50.31244714 14.39257812 60.05004883 C18 64.80194151 18 64.80194151 18 67 C18.66 67 19.32 67 20 67 C20 67.99 20 68.98 20 70 C15.66847508 69.56482343 13.48483112 66.7643649 10.75 63.6875 C10.27199951 63.15785645 9.79399902 62.62821289 9.30151367 62.08251953 C-3 48.13929725 -3 48.13929725 -3 43 C-3.66 42.67 -4.32 42.34 -5 42 C-5.67784992 39.66989091 -6.34416793 37.33640176 -7 35 C-7.66 34.34 -8.32 33.68 -9 33 C-10.49241044 21.73622857 -7.69470302 11.81933408 -1.875 2.1875 C-1.25625 1.465625 -0.6375 0.74375 0 0 Z M9 56 C10 58 10 58 10 58 Z M11 59 C11.33 59.99 11.66 60.98 12 62 C12 61.01 12 60.02 12 59 C11.67 59 11.34 59 11 59 Z " fill="#F7F7F7" transform="translate(15,14)"/>
<path d="M0 0 C0.99 0 1.98 0 3 0 C2.34 1.65 1.68 3.3 1 5 C0.34 5 -0.32 5 -1 5 C-1.33 7.31 -1.66 9.62 -2 12 C-2.66 12 -3.32 12 -4 12 C-4.144375 12.639375 -4.28875 13.27875 -4.4375 13.9375 C-5 16 -5 16 -6 17 C-6.07205511 18.68608966 -6.08386068 20.37500659 -6.0625 22.0625 C-6.05347656 22.98160156 -6.04445313 23.90070312 -6.03515625 24.84765625 C-6.02355469 25.55792969 -6.01195312 26.26820312 -6 27 C-4.68 27 -3.36 27 -2 27 C-2 28.65 -2 30.3 -2 32 C-2.66 32 -3.32 32 -4 32 C-4.33 32.99 -4.66 33.98 -5 35 C-5.99 35 -6.98 35 -8 35 C-10.80269793 29.39460413 -9.6011083 21.21929185 -8.0234375 15.39453125 C-5.96943576 9.91929347 -3.83253183 4.47128713 0 0 Z " fill="#EAEBEA" transform="translate(15,14)"/>
<path d="M0 0 C4.20004254 1.40001418 5.7595955 4.44284145 8.1875 7.9375 C8.65091797 8.58396484 9.11433594 9.23042969 9.59179688 9.89648438 C13 14.73020987 13 14.73020987 13 17 C13.66 17 14.32 17 15 17 C15 17.99 15 18.98 15 20 C11.14896699 19.46324097 9.68202413 17.88399077 7.25 14.9375 C6.63640625 14.20402344 6.0228125 13.47054687 5.390625 12.71484375 C4.93171875 12.14894531 4.4728125 11.58304688 4 11 C4.99 10.67 5.98 10.34 7 10 C6.20882096 8.00016466 6.20882096 8.00016466 5 6 C4.01 5.67 3.02 5.34 2 5 C2 4.34 2 3.68 2 3 C1.34 3 0.68 3 0 3 C0 2.01 0 1.02 0 0 Z " fill="#ECECEC" transform="translate(20,64)"/>
<path d="M0 0 C0.99 0 1.98 0 3 0 C2.34 1.65 1.68 3.3 1 5 C0.34 5 -0.32 5 -1 5 C-1.33 7.31 -1.66 9.62 -2 12 C-2.66 12 -3.32 12 -4 12 C-4.12375 12.556875 -4.2475 13.11375 -4.375 13.6875 C-5.05976855 16.22114364 -5.99133763 18.57921032 -7 21 C-7.66 20.34 -8.32 19.68 -9 19 C-3.67294521 4.28510274 -3.67294521 4.28510274 0 0 Z " fill="#F1F2EE" transform="translate(15,14)"/>
<path d="M0 0 C4.01013741 0.14109743 7.45437274 1.04729091 11.25 2.3125 C11.25 3.3025 11.25 4.2925 11.25 5.3125 C5.31 4.6525 -0.63 3.9925 -6.75 3.3125 C-3.75 0.3125 -3.75 0.3125 0 0 Z " fill="#E8E8E6" transform="translate(46.75,1.6875)"/>
<path d="M0 0 C0.33 0.66 0.66 1.32 1 2 C0.01 2.99 -0.98 3.98 -2 5 C-2.33 3.68 -2.66 2.36 -3 1 C-2.01 0.67 -1.02 0.34 0 0 Z M-4 4 C-3.67 4.66 -3.34 5.32 -3 6 C-3.33 6.66 -3.66 7.32 -4 8 C-4.66 8 -5.32 8 -6 8 C-5.34 6.68 -4.68 5.36 -4 4 Z " fill="#F6F8F5" transform="translate(14,25)"/>
</svg>
